inDegrees=no
num_controls=7
num_derivatives=13
num_iterations=138
num_multipliers=7
num_parameters=0
num_slacks=7
num_states=26
objective=4.423921
objective_accelerations=0.111543
objective_balance=0.042019
objective_effort=0.197236
objective_height=4.022510
objective_ligament=0.050613
solver_duration=1484.048156
status=Solve_Succeeded
success=true
DataType=double
version=3
OpenSimVersion=4.4-2022-07-23-0e9fedc
endheader
time	/jointset/ground_pelvis/pelvis_tilt/value	/jointset/ground_pelvis/pelvis_tx/value	/jointset/ground_pelvis/pelvis_ty/value	/jointset/hip_l/hip_flexion_l/value	/jointset/hip_l/hip_adduction_l/value	/jointset/hip_l/hip_rotation_l/value	/jointset/back/lumbar_extension/value	/jointset/patellofemoral_l/patellar_flexion_l/value	/jointset/knee_l/knee_flexion_l/value	/jointset/knee_l/knee_adduction_l/value	/jointset/knee_l/knee_rotation_l/value	/jointset/ankle_l/ankle_angle_l/value	/jointset/subtalar_l/subtalar_angle_l/value	/jointset/ground_pelvis/pelvis_tilt/speed	/jointset/ground_pelvis/pelvis_tx/speed	/jointset/ground_pelvis/pelvis_ty/speed	/jointset/hip_l/hip_flexion_l/speed	/jointset/hip_l/hip_adduction_l/speed	/jointset/hip_l/hip_rotation_l/speed	/jointset/back/lumbar_extension/speed	/jointset/patellofemoral_l/patellar_flexion_l/speed	/jointset/knee_l/knee_flexion_l/speed	/jointset/knee_l/knee_adduction_l/speed	/jointset/knee_l/knee_rotation_l/speed	/jointset/ankle_l/ankle_angle_l/speed	/jointset/subtalar_l/subtalar_angle_l/speed	/forceset/tau_hip_flexion_l	/forceset/tau_hip_adduction_l	/forceset/tau_hip_rotation_l	/forceset/tau_knee_flexion_l	/forceset/tau_ankle_angle_l	/forceset/tau_subtalar_angle_l	/forceset/tau_lumbar_extension	lambda_cid13_p0	lambda_cid13_p1	lambda_cid13_p2	lambda_cid13_p3	lambda_cid13_p4	lambda_cid13_p5	lambda_cid14_p0	/jointset/ground_pelvis/pelvis_tilt/accel	/jointset/ground_pelvis/pelvis_tx/accel	/jointset/ground_pelvis/pelvis_ty/accel	/jointset/hip_l/hip_flexion_l/accel	/jointset/hip_l/hip_adduction_l/accel	/jointset/hip_l/hip_rotation_l/accel	/jointset/back/lumbar_extension/accel	/jointset/patellofemoral_l/patellar_flexion_l/accel	/jointset/knee_l/knee_flexion_l/accel	/jointset/knee_l/knee_adduction_l/accel	/jointset/knee_l/knee_rotation_l/accel	/jointset/ankle_l/ankle_angle_l/accel	/jointset/subtalar_l/subtalar_angle_l/accel	gamma_cid13_p0	gamma_cid13_p1	gamma_cid13_p2	gamma_cid13_p3	gamma_cid13_p4	gamma_cid13_p5	gamma_cid14_p0
0	-0.03682269959285413	0.05667757547747587	0.9203415913907326	0.3085811930696054	-0.2956404583688742	-0.3016071582504307	-0.3879500408040475	0.2499276582271242	0.249927658227084	-0.1745329055566888	-0.1745328501600369	-0.0008036543073733089	0.0004376206333388828	0	0	0	0	0	0	0	0	0	0	0	0	0	0.02390709448247194	-0.04225048364041027	-0.02055566650778562	-0.249944723660494	0.2482623244607331	-0.009616274649048828	0.06308126217809057	34.71226936269257	-4.079602882868892	2.683988802981395	-29.68906180579363	-669.5591256343452	-78.48707047285278	-23.19702367131292	1.668045679683921	-0.2259024387112599	-0.1286021799409367	0.6319531537480308	-0.5767419986537057	1.463024380155734	-5.164118173728951	3.893904762123328	3.893904762122981	0.06388008981422283	-0.01692084270526065	1.734923715659633	-0.0152321453753835	-7.699156685514705e-09	1.576796371205019e-08	2.300072441785637e-08	2.229112307608305e-09	1.113787693554681e-08	-1.372507284418613e-08	-3.042497599761347e-09
0.01	-0.03673959234678512	0.05666672313042036	0.9203353824624579	0.3086104042082171	-0.2956692617977701	-0.3015338085829529	-0.3882058405818683	0.2501186585638038	0.2501186585638685	-0.1745309640052685	-0.1745323710234444	-0.0007181327434010091	0.0004364677090272541	0.01655770370232822	-0.002130355224446599	-0.001233641812325611	0.005768084531297391	-0.005735834152578292	0.01459975288914787	-0.0508888198417297	0.0380353386217645	0.03803533862175797	0.0003844565448694177	8.930772126679762e-05	0.01707252530890501	-0.0002152572954815263	0.02177286032118536	-0.05827671329998143	-0.0200983362172228	-0.2481187606458568	0.2405477049179832	0.007352874261353646	0.06520901546822465	32.82091411113227	-10.98545574470688	3.633411337755904	-29.58411396653865	-670.8004201916641	-92.98652422666629	-23.19930655766911	1.640069109115814	-0.200584491146593	-0.1195213780687042	0.5381129873045516	-0.568282745779103	1.447921225550448	-5.010593530771095	3.7336397141582	3.733639714157506	0.02515581152347017	0.02088188014394624	1.688648327216647	-0.02237846673914321	-1.441279057551736e-08	1.450902398545821e-08	3.771161586629755e-08	6.376499515388608e-09	-2.193753833950376e-09	-2.4779903359009e-08	-5.687906605531956e-09
0.02	-0.03649282078496338	0.05663577074575293	0.9203170818768204	0.3086950715689893	-0.2957546792926223	-0.3013165672901124	-0.3889623944863802	0.2506850705470937	0.2506850705471206	-0.1745252924126243	-0.174531193748916	-0.0004628396485971088	0.0004336210227397999	0.03273286314909309	-0.004020007522384207	-0.002418331472632322	0.01109124444197972	-0.01132281319386747	0.02877832506850954	-0.1001508253384791	0.07508232932171757	0.0750823293217061	0.0007460080776987915	0.0001396274665594729	0.03395430616623512	-0.0003387523951647379	0.01963862615931261	-0.07430294295975465	-0.01964100592681392	-0.2462927976316679	0.2328330853750022	0.02432202317146891	0.06733676875817529	30.9596731098692	-17.89904437420329	4.586880651779524	-29.59882242222633	-671.6375679432291	-107.4542453478649	-23.20606157089752	1.591536828571417	-0.1777618534096954	-0.1188117495372146	0.5429682296250208	-0.546970976396442	1.37878823819734	-4.838755304732769	3.696235177761254	3.696235177761227	0.05929908740525115	-0.02471843790152717	1.696774825344223	0.003120293783567506	-2.112642446552001e-08	1.325008425886623e-08	5.242250731473872e-08	1.052388672316891e-08	-1.552538460344756e-08	-3.583473387383187e-08	-8.333315611302563e-09
0.03	-0.03608599761399188	0.05658669545465336	0.9202871424274988	0.3088309919492065	-0.2958950577918497	-0.3009598015709858	-0.3902032215192631	0.2516168174471807	0.2516168174471088	-0.1745159029414687	-0.174529761467797	-4.029699269236973e-05	0.0004299525106635073	0.04859249875392267	-0.005797740921216034	-0.003564423669658362	0.01603517569625187	-0.01671482864342817	0.04249941489526134	-0.1477250284555728	0.1110762381442057	0.111076238144203	0.001140401709415596	0.0001456907865102165	0.05045807075018694	-0.0003886217088987556	0.01454450519368455	-0.06449953632125913	-0.01879103994457538	-0.2392906929277757	0.2249480069057024	0.01944810540435091	0.07139997167121025	28.17061493614614	-15.43499425580765	4.355140934436158	-27.46481911487292	-672.6850647359818	-101.7049953376471	-23.21710820921446	1.577283567779347	-0.1781804960415286	-0.1117409054733983	0.461454190772971	-0.5296181359056359	1.357451873741899	-4.673319897589772	3.522348529056919	3.522348529057861	0.03079510797594816	0.01310637104390397	1.612752370904722	-0.008099241871507852	-2.577278299906877e-08	1.051772424409047e-08	6.287076906864451e-08	1.330362110572496e-08	-2.876426801229592e-08	-4.441402239353666e-08	-1.020599635179225e-08
0.04	-0.03552175675871861	0.05651976254697954	0.9202458954660699	0.3090146213655243	-0.2960882167069193	-0.3004680884498561	-0.3919111039997916	0.2529027793944228	0.2529027793944257	-0.1745023124126887	-0.1745283010225495	0.0005443983282527876	0.0004259735658656308	0.06421640001226826	-0.007591530837230278	-0.004679833894088709	0.02063305164820067	-0.02187889635988171	0.05576780547513395	-0.1935619148683268	0.145925338749275	0.1459253387492803	0.001586219618016723	0.0001452602704724357	0.06638483917350006	-0.000400838939408899	0.009450384228919861	-0.05469612968245882	-0.01794107396230849	-0.2322885882232264	0.217062928436742	0.01457418763766311	0.07546317458455952	25.41060056091998	-12.97511458510066	4.123021138648241	-25.44601154149146	-673.3497458787218	-95.91998331501637	-23.23221709202043	1.544389959274886	-0.1809731568465026	-0.1126753550180926	0.4737571691604676	-0.5013814297750346	1.288248388821155	-4.491291963864729	3.467273534277552	3.467273534277372	0.06958394278210314	-0.02601720509960403	1.581375593216081	0.01065071042817541	-3.037651729846385e-08	7.754984429558344e-09	7.323114155049803e-08	1.60551564609568e-08	-4.200123910442988e-08	-5.294226881024933e-08	-1.206274455072975e-08
0.05	-0.03480257350153883	0.0564349421783042	0.920193607900709	0.309242590612284	-0.2963319583399636	-0.2998459025532673	-0.3940688728225119	0.2545317529331467	0.2545317529331796	-0.1744841393203858	-0.1745269456483926	0.001285729265549723	0.0004220587985876591	0.0795726320590659	-0.009362075234924048	-0.005775414177775038	0.02490392700602442	-0.02683775350668545	0.06860593099943654	-0.2377262837488701	0.1796939243770358	0.179693924377033	0.002044104450920583	0.0001281111285623868	0.08180762991030811	-0.0003751292393535208	0.005458648422619289	-0.05377458154812044	-0.01723550990327377	-0.2275054918634934	0.2093967938920931	0.01711721241205716	0.07891028000935542	22.99749975402786	-13.70576396025941	4.295168212738023	-24.07726051229601	-674.1763615922523	-97.04869861835738	-23.25110609081338	1.524094093680774	-0.1735216994873728	-0.1076681222459407	0.3952182433693127	-0.4883983123377773	1.272067963700734	-4.339174460901419	3.305336811055639	3.305336811054346	0.03325621099216934	0.01079278943088021	1.511670454876267	-0.000430480951014097	-3.395021034850583e-08	7.475242716244809e-09	8.113028587791044e-08	1.827494402583857e-08	-5.199587160169099e-08	-5.899617939432433e-08	-1.332494964850658e-08
0.06	-0.0339312570706282	0.05633273104199953	0.9201304307810708	0.3095115617174882	-0.2966243406355196	-0.2990972407355454	-0.3966603183561827	0.2564931494750138	0.2564931494750147	-0.1744615142882488	-0.1745256904539249	0.00217907603840813	0.0004186088121612557	0.09464303475777437	-0.01106968436309641	-0.006857744749549357	0.0288334233348353	-0.0316070288616902	0.0810629897023849	-0.2802972570594824	0.2124099393660058	0.2124099393659969	0.002476607581732193	0.0001252243133459186	0.09678800628564234	-0.0003078827691076613	0.001466912616446006	-0.05285303341375474	-0.01652994584471666	-0.2227223955035949	0.2017306593474987	0.01966023718650425	0.08235738543421206	20.61083179055759	-14.44250850098557	4.469962671940833	-22.81746484836562	-674.6525757635422	-98.1497511812171	-23.27348277954868	1.487224089657356	-0.1683861029425641	-0.1100254126357033	0.40548136335803	-0.4634650714152145	1.212035024550076	-4.172612849878436	3.256759406519439	3.256759406519693	0.0645076023637338	-0.02316473976113259	1.492892720920911	0.01895806446615542	-3.74805332406803e-08	7.300048291403637e-09	8.892579954618847e-08	2.047234221007401e-08	-6.185398457916798e-08	-6.494590741702512e-08	-1.456212135255032e-08
